<?xml version="1.0" encoding="iso-8859-1"?>
<!-- Generator: Adobe Illustrator 18.0.0, SVG Export Plug-In . SVG Version: 6.00 Build 0)  -->
<!DOCTYPE svg PUBLIC "-//W3C//DTD SVG 1.1//EN" "http://www.w3.org/Graphics/SVG/1.1/DTD/svg11.dtd">
<svg width="25px" height="25px" version="1.1" id="Capa_1" xmlns="http://www.w3.org/2000/svg" xmlns:xlink="http://www.w3.org/1999/xlink" x="0px" y="0px"
	 viewBox="0 0 60.455 60.455" style="enable-background:new 0 0 60.455 60.455;" xml:space="preserve">
<path d="M58.166,15.906c-0.638,0-1.296,0.253-1.958,0.751l-6.506,4.901c-0.49-4.932-4.664-8.798-9.723-8.798H9.771
	C4.383,12.761,0,17.144,0,22.531v15.393c0,5.388,4.383,9.771,9.771,9.771h30.209c5.059,0,9.233-3.865,9.723-8.798l6.505,4.901
	c0.662,0.499,1.321,0.751,1.958,0.751h0c0.711,0,1.333-0.321,1.748-0.904c0.359-0.504,0.541-1.165,0.541-1.965V18.775
	C60.455,16.793,59.305,15.906,58.166,15.906z M58.455,41.68c0,0.526-0.13,0.749-0.17,0.805s-0.061,0.064-0.119,0.064
	c-0.068,0-0.325-0.025-0.755-0.349l-8.06-6.072c-0.303-0.229-0.709-0.265-1.048-0.096c-0.339,0.169-0.554,0.516-0.554,0.895v0.997
	c0,4.285-3.486,7.771-7.771,7.771H9.771C5.486,45.694,2,42.208,2,37.923V22.531c0-4.284,3.486-7.77,7.771-7.77h30.209
	c4.285,0,7.771,3.486,7.771,7.77v0.997c0,0.379,0.214,0.726,0.554,0.895c0.338,0.168,0.745,0.131,1.048-0.096l8.06-6.072
	c0.429-0.324,0.686-0.349,0.754-0.349c0.188,0,0.289,0.448,0.289,0.869V41.68z M32.234,28.159l-9.116-6.868
	c-0.486-0.366-0.979-0.552-1.466-0.552c-0.907,0-1.821,0.678-1.821,2.191v14.594c0,1.513,0.915,2.191,1.821,2.191
	c0.486,0,0.979-0.186,1.466-0.552l9.117-6.868c0.695-0.524,1.093-1.278,1.093-2.069C33.328,29.436,32.929,28.682,32.234,28.159z
	 M31.031,30.698l-9.116,6.868c-0.029,0.022-0.056,0.041-0.081,0.057c-0.002-0.029-0.003-0.062-0.003-0.099V22.93
	c0-0.037,0.001-0.069,0.003-0.099c0.025,0.016,0.052,0.035,0.081,0.057l9.116,6.868c0.191,0.144,0.296,0.311,0.297,0.471
	C31.328,30.387,31.222,30.554,31.031,30.698z"/>
<g>
</g>
<g>
</g>
<g>
</g>
<g>
</g>
<g>
</g>
<g>
</g>
<g>
</g>
<g>
</g>
<g>
</g>
<g>
</g>
<g>
</g>
<g>
</g>
<g>
</g>
<g>
</g>
<g>
</g>
</svg>
